<?xml version="1.0" encoding="UTF-8"?>
<svg xmlns="http://www.w3.org/2000/svg" xmlns:xlink="http://www.w3.org/1999/xlink" width="64px" height="45px" viewBox="0 0 45 45" version="1.1">
<g id="surface1">
<path style=" stroke:none;fill-rule:nonzero;fill:rgb(9.411765%,46.666667%,94.901961%);fill-opacity:1;" d="M 45 22.5 C 45 10.074219 34.925781 0 22.5 0 C 10.074219 0 0 10.074219 0 22.5 C 0 33.730469 8.226562 43.039062 18.984375 44.726562 L 18.984375 29.003906 L 13.273438 29.003906 L 13.273438 22.5 L 18.984375 22.5 L 18.984375 17.542969 C 18.984375 11.902344 22.34375 8.789062 27.484375 8.789062 C 29.945312 8.789062 32.519531 9.226562 32.519531 9.226562 L 32.519531 14.765625 L 29.683594 14.765625 C 26.886719 14.765625 26.015625 16.5 26.015625 18.28125 L 26.015625 22.5 L 32.257812 22.5 L 31.257812 29.003906 L 26.015625 29.003906 L 26.015625 44.726562 C 36.773438 43.039062 45 33.730469 45 22.5 "/>
<path style=" stroke:none;fill-rule:nonzero;fill:rgb(100%,100%,100%);fill-opacity:1;" d="M 31.257812 29.003906 L 32.257812 22.5 L 26.015625 22.5 L 26.015625 18.28125 C 26.015625 16.5 26.886719 14.765625 29.683594 14.765625 L 32.519531 14.765625 L 32.519531 9.226562 C 32.519531 9.226562 29.945312 8.789062 27.484375 8.789062 C 22.34375 8.789062 18.984375 11.902344 18.984375 17.542969 L 18.984375 22.5 L 13.273438 22.5 L 13.273438 29.003906 L 18.984375 29.003906 L 18.984375 44.726562 C 20.128906 44.90625 21.304688 45 22.5 45 C 23.695312 45 24.871094 44.90625 26.015625 44.726562 L 26.015625 29.003906 L 31.257812 29.003906 "/>
</g>
</svg>
