<?xml version="1.0" encoding="UTF-8"?>
<svg xmlns="http://www.w3.org/2000/svg" xmlns:xlink="http://www.w3.org/1999/xlink" width="64px" height="45px" viewBox="0 0 45 45" version="1.1">
<g id="surface1">
<path style=" stroke:none;fill-rule:nonzero;fill:rgb(0.784314%,46.666667%,70.980392%);fill-opacity:1;" d="M 41.242188 0 L 3.78125 0 C 1.710938 0 0.046875 1.6875 0.046875 3.738281 L 0.046875 41.261719 C 0.046875 43.335938 1.734375 45 3.78125 45 L 41.21875 45 C 43.289062 45 44.953125 43.3125 44.953125 41.261719 L 44.953125 3.738281 C 44.976562 1.6875 43.3125 0 41.242188 0 Z M 13.347656 37.121094 L 6.707031 37.121094 L 6.707031 17.175781 L 13.347656 17.175781 Z M 10.015625 14.765625 C 7.925781 14.765625 6.234375 13.078125 6.234375 10.984375 C 6.234375 8.890625 7.925781 7.203125 10.015625 7.203125 C 12.109375 7.203125 13.800781 8.890625 13.800781 10.984375 C 13.800781 13.078125 12.109375 14.765625 10.015625 14.765625 Z M 38.335938 37.121094 L 31.671875 37.121094 L 31.515625 25.28125 C 31.515625 25.28125 31.671875 22.128906 28.230469 22.152344 C 24.785156 22.171875 24.3125 25.28125 24.3125 25.28125 L 24.3125 37.121094 L 17.605469 37.121094 L 17.605469 17.175781 L 24.042969 17.175781 L 24.042969 19.921875 C 24.042969 19.921875 24.3125 19.023438 25.796875 17.964844 C 27.285156 16.90625 29.738281 16.679688 30.796875 16.726562 C 31.851562 16.769531 33.292969 16.589844 35.703125 18.257812 C 38.292969 20.035156 38.359375 24.695312 38.359375 24.695312 Z M 38.335938 37.121094 "/>
</g>
</svg>
