<?xml version="1.0" encoding="UTF-8"?>
<svg xmlns="http://www.w3.org/2000/svg" xmlns:xlink="http://www.w3.org/1999/xlink" width="64px" height="45px" viewBox="0 0 45 45" version="1.1">
<g id="surface1">
<path style=" stroke:none;fill-rule:nonzero;fill:rgb(10.588235%,61.568627%,94.117647%);fill-opacity:1;" d="M 45 22.5 C 45 34.925781 34.925781 45 22.5 45 C 10.074219 45 0 34.925781 0 22.5 C 0 10.074219 10.074219 0 22.5 0 C 34.925781 0 45 10.074219 45 22.5 Z M 45 22.5 "/>
<path style=" stroke:none;fill-rule:nonzero;fill:rgb(100%,100%,100%);fill-opacity:1;" d="M 18.382812 34.367188 C 28.359375 34.367188 33.816406 26.101562 33.816406 18.933594 C 33.816406 18.699219 33.816406 18.460938 33.804688 18.234375 C 34.863281 17.472656 35.785156 16.515625 36.515625 15.421875 C 35.550781 15.851562 34.503906 16.144531 33.402344 16.277344 C 34.527344 15.605469 35.382812 14.546875 35.785156 13.273438 C 34.738281 13.894531 33.582031 14.34375 32.34375 14.589844 C 31.355469 13.535156 29.949219 12.882812 28.382812 12.882812 C 25.390625 12.882812 22.960938 15.3125 22.960938 18.304688 C 22.960938 18.730469 23.007812 19.148438 23.109375 19.542969 C 18.597656 19.316406 14.601562 17.15625 11.925781 13.871094 C 11.464844 14.671875 11.195312 15.605469 11.195312 16.59375 C 11.195312 18.472656 12.148438 20.136719 13.613281 21.105469 C 12.722656 21.082031 11.890625 20.835938 11.160156 20.429688 C 11.160156 20.453125 11.160156 20.476562 11.160156 20.496094 C 11.160156 23.128906 13.027344 25.3125 15.515625 25.820312 C 15.0625 25.941406 14.578125 26.011719 14.085938 26.011719 C 13.734375 26.011719 13.398438 25.976562 13.0625 25.910156 C 13.746094 28.070312 15.75 29.632812 18.125 29.675781 C 16.265625 31.128906 13.925781 31.996094 11.386719 31.996094 C 10.945312 31.996094 10.519531 31.972656 10.089844 31.917969 C 12.464844 33.46875 15.324219 34.367188 18.382812 34.367188 "/>
</g>
</svg>
