<svg xmlns="http://www.w3.org/2000/svg" height="47.483" viewBox="0 0 200 47.483" width="200"><g><circle cx="45.139" cy="32.979" fill="#0DB59B" r="5.731"/></g><g><circle cx="16.717" cy="33.162" fill="#0DB59B" r="5.73"/></g><path d="M0,0c0,0,0,7.313,14.915,7.313c14.916,0,14.51,8.188,14.368,11.698c-1.499-2.73-2.864-7.703-12.286-7.604 C9.146,11.487,1.315,7.459,0,0z" fill="#0DB59B"/><path d="M63.629,0c0,0,0,7.313-14.916,7.313c-14.915,0-14.509,8.188-14.366,11.698 c1.498-2.73,2.863-7.703,12.285-7.604C54.483,11.487,62.314,7.459,63.629,0z" fill="#0DB59B"/><path d="M55.489,23.63v-9.943h3.463l0.051,33.796H55.54l-0.051-5.369c-0.17,0.187-0.34,0.374-0.509,0.56 c-2.716,2.699-5.983,4.048-9.802,4.048s-7.082-1.353-9.789-4.061c-2.708-2.707-4.061-5.97-4.061-9.79 c0-3.819,1.354-7.082,4.061-9.79c2.707-2.707,5.97-4.061,9.789-4.061s7.086,1.349,9.802,4.048 C55.149,23.257,55.319,23.444,55.489,23.63z M55.489,35.418v-5.066c-0.442-1.85-1.383-3.496-2.827-4.939 c-2.053-2.07-4.548-3.106-7.485-3.106c-2.903,0-5.389,1.031-7.459,3.094c-2.072,2.062-3.106,4.553-3.106,7.472 c0,2.92,1.034,5.41,3.106,7.472c2.07,2.063,4.557,3.094,7.459,3.094c2.937,0,5.432-1.026,7.485-3.081 C54.106,38.915,55.047,37.269,55.489,35.418z" fill="#0DB59B"/><path d="M87.868,24.952c0.442-0.679,0.967-1.324,1.579-1.935c2.155-2.155,4.752-3.233,7.791-3.233 c3.038,0,5.635,1.078,7.79,3.233c2.037,2.037,3.114,4.464,3.233,7.282v17.185h-3.462V30.298c-0.102-1.884-0.832-3.505-2.189-4.863 c-1.477-1.459-3.268-2.189-5.372-2.189c-2.071,0-3.849,0.734-5.334,2.202c-1.485,1.468-2.228,3.263-2.228,5.385v16.65h-3.59V30.298 c-0.102-1.884-0.832-3.505-2.189-4.863c-1.477-1.459-3.268-2.189-5.372-2.189c-2.071,0-3.849,0.734-5.333,2.202 c-1.485,1.468-2.228,3.263-2.228,5.385v16.65h-3.59V20.088h3.462v2.826c2.139-2.087,4.701-3.131,7.689-3.131 c3.038,0,5.635,1.078,7.791,3.233C86.926,23.628,87.444,24.272,87.868,24.952z" fill="#0DB59B"/><path d="M164.857,19.757l-14.411,27.726L136.01,19.757h3.626l10.809,20.775l10.809-20.775H164.857z" fill="#0DB59B"/><path d="M169.881,19.87v27.613h-3.462V19.87H169.881z" fill="#0DB59B"/><path d="M176.068,24.442c3.004-3.106,6.416-4.659,10.235-4.659c1.544,0,3.004,0.221,4.379,0.662 c1.969,0.662,3.759,1.782,5.372,3.361c1.409,1.409,2.436,2.971,3.081,4.684c0.577,1.375,0.865,2.962,0.865,4.761v14.232h-3.463 V32.768c-0.254-2.444-1.272-4.557-3.055-6.339c-1.986-1.968-4.379-2.954-7.18-2.954c-2.784,0-5.16,0.985-7.129,2.954 c-1.935,1.935-2.962,4.235-3.081,6.899v14.156h-3.488V19.87h3.462V24.442z" fill="#0DB59B"/><path d="M137.957,33.227c0-7.73-5.874-14.014-13.604-14.014s-13.889,6.259-13.889,13.99s6.09,13.994,13.82,13.994 c4.235,0,8.417-1.888,10.417-4.859v5.061h3 M124.569,43.864c-5.883,0-10.669-4.787-10.669-10.669s4.787-10.669,10.669-10.669 c5.883,0,10.669,4.786,10.669,10.669S130.452,43.864,124.569,43.864z" fill="#0DB59B"/><path d="M30.652,32.604c0-7.729-6.027-13.842-13.758-13.842S2.928,25.107,2.928,32.838s6.357,14.038,14.088,14.038 c4.235,0,8.685-1.845,10.685-4.816v5.338h3 M16.957,43.586c-5.882,0-10.669-4.787-10.669-10.669s4.787-10.669,10.669-10.669 c5.884,0,10.669,4.786,10.669,10.669S22.841,43.586,16.957,43.586z" fill="#0DB59B"/></svg>