<?xml version="1.0" encoding="UTF-8"?><svg xmlns="http://www.w3.org/2000/svg" xmlns:xlink="http://www.w3.org/1999/xlink" height="204.3" preserveAspectRatio="xMidYMid meet" version="1.0" viewBox="124.7 108.8 175.9 204.3" width="175.9" zoomAndPan="magnify"><g><g id="change1_3"><path d="M 263.085938 276.695312 L 274.929688 304.824219 C 274.929688 304.824219 276.605469 309.652344 271.066406 311.582031 C 271.066406 311.582031 267.484375 313.027344 263.613281 308.6875 L 244.175781 288.179688 L 263.085938 276.695312" fill="#9ec1cf"/></g><g id="change1_1"><path d="M 162.117188 276.695312 L 150.273438 304.824219 C 150.273438 304.824219 148.59375 309.652344 154.132812 311.582031 C 154.132812 311.582031 157.714844 313.027344 161.589844 308.6875 L 181.023438 288.179688 L 162.117188 276.695312" fill="#9ec1cf"/></g><g id="change1_2"><path d="M 245.8125 163.101562 L 257.414062 169.671875 L 268.859375 149.453125 L 257.253906 142.886719 L 245.8125 163.101562" fill="#9ec1cf"/></g><g id="change2_10"><path d="M 234.390625 129.8125 C 243.464844 114.203125 263.433594 108.757812 279.1875 117.675781 C 294.941406 126.59375 300.550781 146.515625 291.835938 162.332031 L 234.390625 129.8125" fill="#ef2a45"/></g><g id="change1_4"><path d="M 179.390625 163.101562 L 167.785156 169.671875 L 156.339844 149.453125 L 167.945312 142.886719 L 179.390625 163.101562" fill="#9ec1cf"/></g><g id="change2_4"><path d="M 190.808594 129.8125 C 181.734375 114.203125 161.769531 108.757812 146.011719 117.675781 C 130.257812 126.59375 124.652344 146.515625 133.367188 162.332031 L 190.808594 129.8125" fill="#ef2a45"/></g><g id="change2_12"><path d="M 292.078125 221.6875 C 292.078125 265.582031 256.496094 301.164062 212.601562 301.164062 C 168.703125 301.164062 133.121094 265.582031 133.121094 221.6875 C 133.121094 177.789062 168.703125 142.207031 212.601562 142.207031 C 256.496094 142.207031 292.078125 177.789062 292.078125 221.6875" fill="#ef2a45"/></g><g id="change3_1"><path d="M 276.96875 221.6875 C 276.96875 257.234375 248.148438 286.054688 212.601562 286.054688 C 177.050781 286.054688 148.230469 257.234375 148.230469 221.6875 C 148.230469 186.136719 177.050781 157.316406 212.601562 157.316406 C 248.148438 157.316406 276.96875 186.136719 276.96875 221.6875" fill="#fff"/></g><path d="M 2126.015625 2458.914062 L 2126.015625 2105.242188" fill="none" stroke="#24537d" stroke-miterlimit="10" stroke-width="50" transform="matrix(.1 0 0 -.1 0 425.2)"/><path d="M 2126.015625 2021.648438 L 2548.125 1820.90625" fill="none" stroke="#24537d" stroke-miterlimit="10" stroke-width="50" transform="matrix(.1 0 0 -.1 0 425.2)"/><g id="change2_5"><path d="M 219.609375 221.6875 C 219.609375 225.558594 216.472656 228.695312 212.601562 228.695312 C 208.730469 228.695312 205.589844 225.558594 205.589844 221.6875 C 205.589844 217.816406 208.730469 214.675781 212.601562 214.675781 C 216.472656 214.675781 219.609375 217.816406 219.609375 221.6875" fill="#ef2a45"/></g><g id="change2_7"><path d="M 216.460938 276.695312 C 216.460938 278.824219 214.730469 280.554688 212.601562 280.554688 C 210.46875 280.554688 208.738281 278.824219 208.738281 276.695312 C 208.738281 274.5625 210.46875 272.835938 212.601562 272.835938 C 214.730469 272.835938 216.460938 274.5625 216.460938 276.695312" fill="#ef2a45"/></g><g id="change2_15"><path d="M 216.460938 166.675781 C 216.460938 168.808594 214.730469 170.539062 212.601562 170.539062 C 210.46875 170.539062 208.738281 168.808594 208.738281 166.675781 C 208.738281 164.546875 210.46875 162.816406 212.601562 162.816406 C 214.730469 162.816406 216.460938 164.546875 216.460938 166.675781" fill="#ef2a45"/></g><g id="change2_6"><path d="M 157.589844 225.546875 C 155.460938 225.546875 153.730469 223.816406 153.730469 221.6875 C 153.730469 219.554688 155.460938 217.824219 157.589844 217.824219 C 159.722656 217.824219 161.453125 219.554688 161.453125 221.6875 C 161.453125 223.816406 159.722656 225.546875 157.589844 225.546875" fill="#ef2a45"/></g><g id="change2_8"><path d="M 267.609375 225.546875 C 265.476562 225.546875 263.75 223.816406 263.75 221.6875 C 263.75 219.554688 265.476562 217.824219 267.609375 217.824219 C 269.738281 217.824219 271.46875 219.554688 271.46875 221.6875 C 271.46875 223.816406 269.738281 225.546875 267.609375 225.546875" fill="#ef2a45"/></g><g id="change2_2"><path d="M 186.050781 270.015625 C 184.894531 271.808594 182.503906 272.324219 180.714844 271.171875 C 178.921875 270.015625 178.402344 267.628906 179.558594 265.835938 C 180.714844 264.042969 183.101562 263.527344 184.894531 264.683594 C 186.6875 265.835938 187.203125 268.226562 186.050781 270.015625" fill="#ef2a45"/></g><g id="change2_14"><path d="M 245.640625 177.539062 C 244.488281 179.328125 242.097656 179.847656 240.304688 178.691406 C 238.515625 177.535156 237.996094 175.148438 239.152344 173.355469 C 240.308594 171.5625 242.695312 171.046875 244.488281 172.199219 C 246.277344 173.355469 246.796875 175.746094 245.640625 177.539062" fill="#ef2a45"/></g><g id="change2_9"><path d="M 166.988281 252.675781 C 165.144531 253.746094 162.78125 253.121094 161.710938 251.28125 C 160.640625 249.4375 161.265625 247.074219 163.105469 246.003906 C 164.949219 244.929688 167.3125 245.554688 168.382812 247.398438 C 169.457031 249.242188 168.832031 251.605469 166.988281 252.675781" fill="#ef2a45"/></g><g id="change2_3"><path d="M 262.09375 197.371094 C 260.25 198.441406 257.886719 197.816406 256.816406 195.972656 C 255.742188 194.132812 256.371094 191.769531 258.210938 190.695312 C 260.054688 189.625 262.417969 190.25 263.488281 192.09375 C 264.5625 193.9375 263.9375 196.300781 262.09375 197.371094" fill="#ef2a45"/></g><g id="change2_16"><path d="M 161.972656 199.832031 C 160.078125 198.851562 159.339844 196.519531 160.316406 194.628906 C 161.296875 192.734375 163.628906 191.996094 165.519531 192.972656 C 167.414062 193.953125 168.152344 196.28125 167.175781 198.175781 C 166.195312 200.070312 163.863281 200.808594 161.972656 199.832031" fill="#ef2a45"/></g><g id="change2_1"><path d="M 259.679688 250.398438 C 257.785156 249.417969 257.046875 247.089844 258.023438 245.195312 C 259.003906 243.300781 261.335938 242.5625 263.226562 243.542969 C 265.121094 244.519531 265.863281 246.851562 264.882812 248.742188 C 263.902344 250.636719 261.574219 251.378906 259.679688 250.398438" fill="#ef2a45"/></g><g id="change2_11"><path d="M 181.128906 176.40625 C 180.035156 174.574219 180.636719 172.203125 182.46875 171.113281 C 184.300781 170.023438 186.667969 170.621094 187.761719 172.453125 C 188.851562 174.285156 188.253906 176.652344 186.421875 177.746094 C 184.589844 178.835938 182.21875 178.234375 181.128906 176.40625" fill="#ef2a45"/></g><g id="change2_13"><path d="M 237.4375 270.917969 C 236.347656 269.085938 236.949219 266.71875 238.777344 265.628906 C 240.609375 264.535156 242.980469 265.136719 244.070312 266.96875 C 245.160156 268.800781 244.5625 271.167969 242.730469 272.261719 C 240.898438 273.351562 238.53125 272.75 237.4375 270.917969" fill="#ef2a45"/></g></g></svg>