<?xml version="1.0" encoding="UTF-8"?><svg xmlns="http://www.w3.org/2000/svg" xmlns:xlink="http://www.w3.org/1999/xlink" height="172.7" preserveAspectRatio="xMidYMid meet" version="1.0" viewBox="96.6 125.2 237.2 172.7" width="237.2" zoomAndPan="magnify"><g id="change1_1"><path d="M204.503,211.773v57.448c0,0,69.4,13.013,102.365,1.735c0,0,11.277-6.94,5.205-20.82 c0,0,10.531-11.278,1.796-25.158c0,0,13.932-16.482,3.466-26.893c0,0,16.524-16.482,3.896-23.422 c-12.628-6.94-69.016,2.603-71.618-5.205c0,0,0,0,0.868-13.013s-6.94-31.23-20.82-28.627c0,0-1.735,3.47-1.735,8.675 c0,0,0.868,20.82-6.072,32.965S204.503,205.7,204.503,211.773z" fill="#EFC9B6"/></g><g id="change2_1"><path d="M208.841,205.157v72.871c0,0,0.868,6.94-6.073,6.94c-6.94,0-23.422,1.735-26.025-5.205 s-4.337-69.4,0-74.605S208.841,200.792,208.841,205.157z" fill="#A6DBF4"/></g><g id="change3_1"><path d="M193.66,260.759c0,0-6.506,0-7.374,6.506c-0.867,6.506,4.337,8.337,7.374,8.289c0,0,6.506-1.3,7.374-7.397 C201.033,268.158,201.467,261.627,193.66,260.759z" fill="#F4DB73"/></g><g id="change4_1"><path d="M181.659,201.561c0,0,4.047,95.199,0,95.777c-4.049,0.578-80.388,0.128-80.388,0.128s-4.626-7.518,0-95.777 c0,0,0.579-4.854,10.989-3.697c10.41,1.157,67.085-0.307,67.085-0.307S181.503,197.745,181.659,201.561z" fill="#3F78A1"/></g></svg>