    <svg
      xmlns="http://www.w3.org/2000/svg"
      viewBox="0 0 140 140"
      width="40"
      height="40"
      preserveAspectRatio="xMidYMid meet"
      style="width: 40px; height: 100%; transform: translate3d(0px, 0px, 0px)"
    >
      <defs>
        <clipPath id="__lottie_element_382">
          <rect width="140" height="140" x="0" y="0"></rect>
        </clipPath>
      </defs>
      <g clip-path="url(#__lottie_element_382)">
        <g
          transform="matrix(0.9999777674674988,-0.006670537870377302,0.006670537870377302,0.9999777674674988,48.66374206542969,87.13121032714844)"
          opacity="1"
          style="display: block"
        >
          <g
            opacity="1"
            transform="matrix(1,0,0,1,21.24799919128418,21.24799919128418)"
          >
            <path
              fill="rgb(254,222,0)"
              fill-opacity="1"
              d=" M-0.0010000000474974513,13.74899959564209 C-7.581999778747559,13.74899959564209 -13.74899959564209,7.579999923706055 -13.74899959564209,-0.0010000000474974513 C-13.74899959564209,-7.581999778747559 -7.581999778747559,-13.74899959564209 -0.0010000000474974513,-13.74899959564209 C7.579999923706055,-13.74899959564209 13.74899959564209,-7.581999778747559 13.74899959564209,-0.0010000000474974513 C13.74899959564209,7.579999923706055 7.579999923706055,13.74899959564209 -0.0010000000474974513,13.74899959564209z"
            ></path>
            <path
              stroke-linecap="butt"
              stroke-linejoin="miter"
              fill-opacity="0"
              stroke-miterlimit="10"
              stroke="rgb(0,0,0)"
              stroke-opacity="1"
              stroke-width="3"
              d=" M-0.0010000000474974513,13.74899959564209 C-7.581999778747559,13.74899959564209 -13.74899959564209,7.579999923706055 -13.74899959564209,-0.0010000000474974513 C-13.74899959564209,-7.581999778747559 -7.581999778747559,-13.74899959564209 -0.0010000000474974513,-13.74899959564209 C7.579999923706055,-13.74899959564209 13.74899959564209,-7.581999778747559 13.74899959564209,-0.0010000000474974513 C13.74899959564209,7.579999923706055 7.579999923706055,13.74899959564209 -0.0010000000474974513,13.74899959564209z"
            ></path>
          </g>
        </g>
        <g
          transform="matrix(0.9999777674674988,-0.006670537870377302,0.006670537870377302,0.9999777674674988,-23.500099182128906,-41.379276275634766)"
          opacity="1"
          style="display: block"
        >
          <g
            opacity="1"
            transform="matrix(1,0,0,1,92.4020004272461,83.70099639892578)"
          >
            <path
              stroke-linecap="round"
              stroke-linejoin="round"
              fill-opacity="0"
              stroke="rgb(0,0,0)"
              stroke-opacity="1"
              stroke-width="30"
              d=" M-17.402000427246094,8.701000213623047 C-17.402000427246094,-0.9129999876022339 -9.614999771118164,-8.701000213623047 -0.0010000000474974513,-8.701000213623047 C9.61400032043457,-8.701000213623047 17.402000427246094,-0.9129999876022339 17.402000427246094,8.701000213623047"
            ></path>
          </g>
          <g
            opacity="1"
            transform="matrix(1,0,0,1,101.10199737548828,107.677001953125)"
          >
            <path
              stroke-linecap="round"
              stroke-linejoin="round"
              fill-opacity="0"
              stroke="rgb(0,0,0)"
              stroke-opacity="1"
              stroke-width="30"
              d=" M8.701000213623047,-15.276000022888184 C8.701000213623047,-11.154999732971191 7.2179999351501465,-7.170000076293945 4.572000026702881,-4.01800012588501 C1.7669999599456787,-0.675000011920929 -2.325000047683716,1.093999981880188 -5.019999980926514,4.6570000648498535 C-7.322000026702881,7.701000213623047 -8.701000213623047,11.437999725341797 -8.701000213623047,15.276000022888184"
            ></path>
          </g>
          <g
            opacity="1"
            transform="matrix(1,0,0,1,92.4020004272461,83.70099639892578)"
          >
            <path
              stroke-linecap="round"
              stroke-linejoin="round"
              fill-opacity="0"
              stroke="rgb(254,222,0)"
              stroke-opacity="1"
              stroke-width="24"
              d=" M-17.402000427246094,8.701000213623047 C-17.402000427246094,-0.9129999876022339 -9.614999771118164,-8.701000213623047 -0.0010000000474974513,-8.701000213623047 C9.61400032043457,-8.701000213623047 17.402000427246094,-0.9129999876022339 17.402000427246094,8.701000213623047"
            ></path>
          </g>
          <g
            opacity="1"
            transform="matrix(1,0,0,1,101.10199737548828,107.677001953125)"
          >
            <path
              stroke-linecap="round"
              stroke-linejoin="round"
              fill-opacity="0"
              stroke="rgb(254,222,0)"
              stroke-opacity="1"
              stroke-width="24"
              d=" M8.701000213623047,-15.276000022888184 C8.701000213623047,-11.154999732971191 7.2179999351501465,-7.170000076293945 4.572000026702881,-4.01800012588501 C1.7669999599456787,-0.675000011920929 -2.325000047683716,1.093999981880188 -5.019999980926514,4.6570000648498535 C-7.322000026702881,7.701000213623047 -8.701000213623047,11.437999725341797 -8.701000213623047,15.276000022888184"
            ></path>
          </g>
        </g>
        <g
          transform="matrix(0.9999777674674988,-0.006670537870377302,0.006670537870377302,0.9999777674674988,56.716922760009766,95.07666778564453)"
          opacity="1"
          style="display: block"
        >
          <g
            opacity="1"
            transform="matrix(1,0,0,1,13.24899959564209,13.24899959564209)"
          >
            <path
              fill="rgb(255,33,113)"
              fill-opacity="1"
              d=" M5.749000072479248,-0.0010000000474974513 C5.749000072479248,3.1740000247955322 3.1740000247955322,5.749000072479248 -0.0010000000474974513,5.749000072479248 C-3.1760001182556152,5.749000072479248 -5.749000072479248,3.1740000247955322 -5.749000072479248,-0.0010000000474974513 C-5.749000072479248,-3.1760001182556152 -3.1760001182556152,-5.749000072479248 -0.0010000000474974513,-5.749000072479248 C3.1740000247955322,-5.749000072479248 5.749000072479248,-3.1760001182556152 5.749000072479248,-0.0010000000474974513z"
            ></path>
            <path
              stroke-linecap="butt"
              stroke-linejoin="miter"
              fill-opacity="0"
              stroke-miterlimit="10"
              stroke="rgb(0,0,0)"
              stroke-opacity="1"
              stroke-width="3"
              d=" M5.749000072479248,-0.0010000000474974513 C5.749000072479248,3.1740000247955322 3.1740000247955322,5.749000072479248 -0.0010000000474974513,5.749000072479248 C-3.1760001182556152,5.749000072479248 -5.749000072479248,3.1740000247955322 -5.749000072479248,-0.0010000000474974513 C-5.749000072479248,-3.1760001182556152 -3.1760001182556152,-5.749000072479248 -0.0010000000474974513,-5.749000072479248 C3.1740000247955322,-5.749000072479248 5.749000072479248,-3.1760001182556152 5.749000072479248,-0.0010000000474974513z"
            ></path>
          </g>
        </g>
        <g
          transform="matrix(0.9999777674674988,-0.006670537870377302,0.006670537870377302,0.9999777674674988,16.765832901000977,-1.6469883918762207)"
          opacity="1"
          style="display: block"
        >
          <g
            opacity="1"
            transform="matrix(1,0,0,1,52.402000427246094,43.70100021362305)"
          >
            <path
              stroke-linecap="round"
              stroke-linejoin="round"
              fill-opacity="0"
              stroke="rgb(0,0,0)"
              stroke-opacity="1"
              stroke-width="14"
              d=" M-17.402000427246094,8.701000213623047 C-17.402000427246094,-0.9129999876022339 -9.614999771118164,-8.701000213623047 -0.0010000000474974513,-8.701000213623047 C9.61400032043457,-8.701000213623047 17.402000427246094,-0.9129999876022339 17.402000427246094,8.701000213623047"
            ></path>
          </g>
          <g
            opacity="1"
            transform="matrix(1,0,0,1,61.10200119018555,67.677001953125)"
          >
            <path
              stroke-linecap="round"
              stroke-linejoin="round"
              fill-opacity="0"
              stroke="rgb(0,0,0)"
              stroke-opacity="1"
              stroke-width="14"
              d=" M8.701000213623047,-15.276000022888184 C8.701000213623047,-11.154999732971191 7.2179999351501465,-7.170000076293945 4.572000026702881,-4.01800012588501 C1.7669999599456787,-0.675000011920929 -2.325000047683716,1.093999981880188 -5.019999980926514,4.6570000648498535 C-7.322000026702881,7.701000213623047 -8.701000213623047,11.437999725341797 -8.701000213623047,15.276000022888184"
            ></path>
          </g>
          <g
            opacity="1"
            transform="matrix(1,0,0,1,52.402000427246094,43.70100021362305)"
          >
            <path
              stroke-linecap="round"
              stroke-linejoin="round"
              fill-opacity="0"
              stroke="rgb(255,33,113)"
              stroke-opacity="1"
              stroke-width="8"
              d=" M-17.402000427246094,8.701000213623047 C-17.402000427246094,-0.9129999876022339 -9.614999771118164,-8.701000213623047 -0.0010000000474974513,-8.701000213623047 C9.61400032043457,-8.701000213623047 17.402000427246094,-0.9129999876022339 17.402000427246094,8.701000213623047"
            ></path>
          </g>
          <g
            opacity="1"
            transform="matrix(1,0,0,1,61.10200119018555,67.677001953125)"
          >
            <path
              stroke-linecap="round"
              stroke-linejoin="round"
              fill-opacity="0"
              stroke="rgb(255,33,113)"
              stroke-opacity="1"
              stroke-width="8"
              d=" M8.701000213623047,-15.276000022888184 C8.701000213623047,-11.154999732971191 7.2179999351501465,-7.170000076293945 4.572000026702881,-4.01800012588501 C1.7669999599456787,-0.675000011920929 -2.325000047683716,1.093999981880188 -5.019999980926514,4.6570000648498535 C-7.322000026702881,7.701000213623047 -8.701000213623047,11.437999725341797 -8.701000213623047,15.276000022888184"
            ></path>
          </g>
        </g>
      </g>
    </svg>